<mxfile host="65bd71144e">
    <diagram id="u3fEfBOtyhhKMNPX7unt" name="pakiety">
        <mxGraphModel dx="1391" dy="782" grid="1" gridSize="10" guides="1" tooltips="1" connect="1" arrows="1" fold="1" page="1" pageScale="1" pageWidth="827" pageHeight="1169" math="0" shadow="0">
            <root>
                <mxCell id="BMiwwZ8hpxHMw_zVzqxJ-0"/>
                <mxCell id="BMiwwZ8hpxHMw_zVzqxJ-1" parent="BMiwwZ8hpxHMw_zVzqxJ-0"/>
            </root>
        </mxGraphModel>
    </diagram>
    <diagram id="oWd6-dMnreRgR_n7EPOS" name="klasy">
        <mxGraphModel dx="1391" dy="782" grid="1" gridSize="10" guides="1" tooltips="1" connect="1" arrows="1" fold="1" page="1" pageScale="1" pageWidth="827" pageHeight="1169" math="0" shadow="0">
            <root>
                <mxCell id="0"/>
                <mxCell id="1" parent="0"/>
                <mxCell id="pr8gu_zER3Ryq6hkfkj7-1" value="" style="swimlane;fontStyle=1;align=center;verticalAlign=top;childLayout=stackLayout;horizontal=1;startSize=26;horizontalStack=0;resizeParent=1;resizeParentMax=0;resizeLast=0;collapsible=1;marginBottom=0;" vertex="1" parent="1">
                    <mxGeometry x="110" y="170" width="160" height="86" as="geometry"/>
                </mxCell>
                <mxCell id="pr8gu_zER3Ryq6hkfkj7-2" value="+ field: type" style="text;strokeColor=none;fillColor=none;align=left;verticalAlign=top;spacingLeft=4;spacingRight=4;overflow=hidden;rotatable=0;points=[[0,0.5],[1,0.5]];portConstraint=eastwest;" vertex="1" parent="pr8gu_zER3Ryq6hkfkj7-1">
                    <mxGeometry y="26" width="160" height="26" as="geometry"/>
                </mxCell>
                <mxCell id="pr8gu_zER3Ryq6hkfkj7-3" value="" style="line;strokeWidth=1;fillColor=none;align=left;verticalAlign=middle;spacingTop=-1;spacingLeft=3;spacingRight=3;rotatable=0;labelPosition=right;points=[];portConstraint=eastwest;" vertex="1" parent="pr8gu_zER3Ryq6hkfkj7-1">
                    <mxGeometry y="52" width="160" height="8" as="geometry"/>
                </mxCell>
                <mxCell id="pr8gu_zER3Ryq6hkfkj7-4" value="+ method(type): type" style="text;strokeColor=none;fillColor=none;align=left;verticalAlign=top;spacingLeft=4;spacingRight=4;overflow=hidden;rotatable=0;points=[[0,0.5],[1,0.5]];portConstraint=eastwest;" vertex="1" parent="pr8gu_zER3Ryq6hkfkj7-1">
                    <mxGeometry y="60" width="160" height="26" as="geometry"/>
                </mxCell>
            </root>
        </mxGraphModel>
    </diagram>
    <diagram id="8mvITgK_DfjRLVbDLybs" name="przypadki użycia">
        <mxGraphModel dx="2463" dy="920" grid="1" gridSize="10" guides="1" tooltips="1" connect="1" arrows="1" fold="1" page="1" pageScale="1" pageWidth="827" pageHeight="1169" math="0" shadow="0">
            <root>
                <mxCell id="lPpNZGaQH_9Cvo5qpnX5-0"/>
                <mxCell id="lPpNZGaQH_9Cvo5qpnX5-1" parent="lPpNZGaQH_9Cvo5qpnX5-0"/>
                <mxCell id="tkyIYsN_mE2GSkDR6UfJ-20" value="" style="swimlane;startSize=0;" vertex="1" parent="lPpNZGaQH_9Cvo5qpnX5-1">
                    <mxGeometry x="-160" y="30" width="840" height="525" as="geometry">
                        <mxRectangle x="90" y="30" width="50" height="40" as="alternateBounds"/>
                    </mxGeometry>
                </mxCell>
                <mxCell id="tkyIYsN_mE2GSkDR6UfJ-15" value="utwórz konto" style="ellipse;whiteSpace=wrap;html=1;" vertex="1" parent="tkyIYsN_mE2GSkDR6UfJ-20">
                    <mxGeometry x="682" y="225" width="140" height="70" as="geometry"/>
                </mxCell>
                <mxCell id="tkyIYsN_mE2GSkDR6UfJ-7" value="Usuń z koszyka" style="ellipse;whiteSpace=wrap;html=1;" vertex="1" parent="tkyIYsN_mE2GSkDR6UfJ-20">
                    <mxGeometry x="40" y="100" width="140" height="70" as="geometry"/>
                </mxCell>
                <mxCell id="tkyIYsN_mE2GSkDR6UfJ-5" value="dodaj do koszyka" style="ellipse;whiteSpace=wrap;html=1;" vertex="1" parent="tkyIYsN_mE2GSkDR6UfJ-20">
                    <mxGeometry x="260" y="180" width="140" height="70" as="geometry"/>
                </mxCell>
                <mxCell id="tkyIYsN_mE2GSkDR6UfJ-2" value="kup danie" style="ellipse;whiteSpace=wrap;html=1;" vertex="1" parent="tkyIYsN_mE2GSkDR6UfJ-20">
                    <mxGeometry x="240" y="320" width="140" height="70" as="geometry"/>
                </mxCell>
                <mxCell id="tkyIYsN_mE2GSkDR6UfJ-19" value="&amp;lt;&amp;lt;include&amp;gt;&amp;gt;" style="endArrow=open;endSize=12;dashed=1;html=1;entryX=0.428;entryY=0.025;entryDx=0;entryDy=0;entryPerimeter=0;exitX=0.5;exitY=1;exitDx=0;exitDy=0;" edge="1" parent="tkyIYsN_mE2GSkDR6UfJ-20" source="tkyIYsN_mE2GSkDR6UfJ-5" target="tkyIYsN_mE2GSkDR6UfJ-2">
                    <mxGeometry width="160" relative="1" as="geometry">
                        <mxPoint x="370" y="240" as="sourcePoint"/>
                        <mxPoint x="168" y="320" as="targetPoint"/>
                    </mxGeometry>
                </mxCell>
                <mxCell id="tkyIYsN_mE2GSkDR6UfJ-16" value="usuń konto&lt;br&gt;" style="ellipse;whiteSpace=wrap;html=1;" vertex="1" parent="tkyIYsN_mE2GSkDR6UfJ-20">
                    <mxGeometry x="598" y="365" width="140" height="70" as="geometry"/>
                </mxCell>
                <mxCell id="tkyIYsN_mE2GSkDR6UfJ-22" value="&amp;lt;&amp;lt;include&amp;gt;&amp;gt;" style="endArrow=open;endSize=12;dashed=1;html=1;exitX=0;exitY=0.5;exitDx=0;exitDy=0;entryX=1;entryY=1;entryDx=0;entryDy=0;" edge="1" parent="tkyIYsN_mE2GSkDR6UfJ-20" source="tkyIYsN_mE2GSkDR6UfJ-5" target="tkyIYsN_mE2GSkDR6UfJ-7">
                    <mxGeometry width="160" relative="1" as="geometry">
                        <mxPoint x="58" y="360" as="sourcePoint"/>
                        <mxPoint x="-2" y="430" as="targetPoint"/>
                    </mxGeometry>
                </mxCell>
                <mxCell id="tkyIYsN_mE2GSkDR6UfJ-23" value="zaloguj się" style="ellipse;whiteSpace=wrap;html=1;" vertex="1" parent="tkyIYsN_mE2GSkDR6UfJ-20">
                    <mxGeometry x="498" y="140" width="120" height="80" as="geometry"/>
                </mxCell>
                <mxCell id="tkyIYsN_mE2GSkDR6UfJ-26" value="&amp;lt;&amp;lt;include&amp;gt;&amp;gt;" style="endArrow=open;endSize=12;dashed=1;html=1;entryX=1;entryY=1;entryDx=0;entryDy=0;" edge="1" parent="tkyIYsN_mE2GSkDR6UfJ-20" source="tkyIYsN_mE2GSkDR6UfJ-15" target="tkyIYsN_mE2GSkDR6UfJ-23">
                    <mxGeometry width="160" relative="1" as="geometry">
                        <mxPoint x="759.0025253169417" y="164.99873734152914" as="sourcePoint"/>
                        <mxPoint x="587.9974746830583" y="225.50126265847075" as="targetPoint"/>
                    </mxGeometry>
                </mxCell>
                <mxCell id="tkyIYsN_mE2GSkDR6UfJ-27" value="&amp;lt;&amp;lt;include&amp;gt;&amp;gt;" style="endArrow=open;endSize=12;dashed=1;html=1;exitX=0.5;exitY=1;exitDx=0;exitDy=0;entryX=0.5;entryY=0;entryDx=0;entryDy=0;" edge="1" parent="tkyIYsN_mE2GSkDR6UfJ-20" source="tkyIYsN_mE2GSkDR6UfJ-15" target="tkyIYsN_mE2GSkDR6UfJ-16">
                    <mxGeometry width="160" relative="1" as="geometry">
                        <mxPoint x="691.8881522836566" y="307.2126296478423" as="sourcePoint"/>
                        <mxPoint x="561.9964068711927" y="324.99572875253807" as="targetPoint"/>
                    </mxGeometry>
                </mxCell>
                <mxCell id="tkyIYsN_mE2GSkDR6UfJ-28" value="przeglądaj dania" style="ellipse;whiteSpace=wrap;html=1;" vertex="1" parent="tkyIYsN_mE2GSkDR6UfJ-20">
                    <mxGeometry x="328" y="60" width="140" height="70" as="geometry"/>
                </mxCell>
                <mxCell id="tkyIYsN_mE2GSkDR6UfJ-29" value="" style="endArrow=none;html=1;entryX=1;entryY=1;entryDx=0;entryDy=0;exitX=0;exitY=0;exitDx=0;exitDy=0;" edge="1" parent="tkyIYsN_mE2GSkDR6UfJ-20" source="tkyIYsN_mE2GSkDR6UfJ-23" target="tkyIYsN_mE2GSkDR6UfJ-28">
                    <mxGeometry width="50" height="50" relative="1" as="geometry">
                        <mxPoint x="358" y="240" as="sourcePoint"/>
                        <mxPoint x="408" y="190" as="targetPoint"/>
                    </mxGeometry>
                </mxCell>
                <mxCell id="tkyIYsN_mE2GSkDR6UfJ-31" value="drukuj paragon" style="ellipse;whiteSpace=wrap;html=1;" vertex="1" parent="tkyIYsN_mE2GSkDR6UfJ-20">
                    <mxGeometry x="40" y="410" width="140" height="70" as="geometry"/>
                </mxCell>
                <mxCell id="tkyIYsN_mE2GSkDR6UfJ-33" value="&amp;lt;&amp;lt;include&amp;gt;&amp;gt;" style="endArrow=open;endSize=12;dashed=1;html=1;exitX=0.5;exitY=1;exitDx=0;exitDy=0;entryX=0.5;entryY=0;entryDx=0;entryDy=0;" edge="1" parent="tkyIYsN_mE2GSkDR6UfJ-20" source="tkyIYsN_mE2GSkDR6UfJ-28" target="tkyIYsN_mE2GSkDR6UfJ-5">
                    <mxGeometry width="160" relative="1" as="geometry">
                        <mxPoint x="485.0399999999995" y="202.73" as="sourcePoint"/>
                        <mxPoint x="354.95870674094976" y="157.26631348283965" as="targetPoint"/>
                    </mxGeometry>
                </mxCell>
                <mxCell id="tkyIYsN_mE2GSkDR6UfJ-35" value="&amp;lt;&amp;lt;include&amp;gt;&amp;gt;" style="endArrow=open;endSize=12;dashed=1;html=1;entryX=1;entryY=0;entryDx=0;entryDy=0;exitX=0;exitY=1;exitDx=0;exitDy=0;" edge="1" parent="tkyIYsN_mE2GSkDR6UfJ-20" source="tkyIYsN_mE2GSkDR6UfJ-2" target="tkyIYsN_mE2GSkDR6UfJ-31">
                    <mxGeometry width="160" relative="1" as="geometry">
                        <mxPoint x="339.99999999999955" y="260" as="sourcePoint"/>
                        <mxPoint x="309.9199999999996" y="331.75" as="targetPoint"/>
                    </mxGeometry>
                </mxCell>
                <mxCell id="tkyIYsN_mE2GSkDR6UfJ-0" value="Klient" style="shape=umlActor;verticalLabelPosition=bottom;verticalAlign=top;html=1;" vertex="1" parent="lPpNZGaQH_9Cvo5qpnX5-1">
                    <mxGeometry x="720" y="220" width="30" height="60" as="geometry"/>
                </mxCell>
                <mxCell id="tkyIYsN_mE2GSkDR6UfJ-12" value="" style="endArrow=none;html=1;entryX=1;entryY=0;entryDx=0;entryDy=0;" edge="1" parent="lPpNZGaQH_9Cvo5qpnX5-1" source="tkyIYsN_mE2GSkDR6UfJ-0" target="tkyIYsN_mE2GSkDR6UfJ-15">
                    <mxGeometry width="50" height="50" relative="1" as="geometry">
                        <mxPoint x="128" y="355" as="sourcePoint"/>
                        <mxPoint x="178" y="305" as="targetPoint"/>
                    </mxGeometry>
                </mxCell>
            </root>
        </mxGraphModel>
    </diagram>
    <diagram id="Q2ymuONG536pdrE4VD3N" name="sekwencje">
        <mxGraphModel dx="1391" dy="782" grid="1" gridSize="10" guides="1" tooltips="1" connect="1" arrows="1" fold="1" page="1" pageScale="1" pageWidth="827" pageHeight="1169" math="0" shadow="0">
            <root>
                <mxCell id="9bCcrA8wTac0FgH9M-lm-0"/>
                <mxCell id="9bCcrA8wTac0FgH9M-lm-1" parent="9bCcrA8wTac0FgH9M-lm-0"/>
            </root>
        </mxGraphModel>
    </diagram>
    <diagram id="bLB8O4Vu0PWImn4wLfAG" name="stany">
        <mxGraphModel dx="1391" dy="782" grid="1" gridSize="10" guides="1" tooltips="1" connect="1" arrows="1" fold="1" page="1" pageScale="1" pageWidth="827" pageHeight="1169" math="0" shadow="0">
            <root>
                <mxCell id="RCGY-NUhjGaPpJ1QlaYC-0"/>
                <mxCell id="RCGY-NUhjGaPpJ1QlaYC-1" parent="RCGY-NUhjGaPpJ1QlaYC-0"/>
            </root>
        </mxGraphModel>
    </diagram>
</mxfile>